<?xml version="1.0" encoding="utf-8"?>
<!-- Generator: Adobe Illustrator 25.3.1, SVG Export Plug-In . SVG Version: 6.00 Build 0)  -->
<svg version="1.1" id="Layer_1" xmlns="http://www.w3.org/2000/svg" xmlns:xlink="http://www.w3.org/1999/xlink" x="0px" y="0px"
	 viewBox="0 0 24 24" style="enable-background:new 0 0 24 24;" xml:space="preserve">
<style type="text/css">
	.st0{fill:#2A363E;}
</style>
<path class="st0" d="M21.8,15l-9.1,8.7C12.5,23.9,12.2,24,12,24s-0.5-0.1-0.7-0.3L2.2,15c-0.4-0.4-0.4-1,0-1.4c0.4-0.4,1-0.4,1.4,0
	l7.4,7.1V1c0-0.5,0.4-1,1-1c0.5,0,1,0.4,1,1v19.6l7.3-7c0.4-0.4,1-0.4,1.4,0C22.2,14,22.1,14.6,21.8,15z"/>
</svg>
